<svg width="16" height="17" viewBox="0 0 16 17" fill="none" xmlns="http://www.w3.org/2000/svg">
<g clip-path="url(#clip0_1449_9169)">
<path d="M8 0.240234C3.58176 0.240234 0 3.82199 0 8.24023C0 11.9919 2.58304 15.1401 6.06752 16.0047V10.685H4.41792V8.24023H6.06752V7.18679C6.06752 4.46391 7.29984 3.20183 9.97312 3.20183C10.48 3.20183 11.3546 3.30135 11.7123 3.40055V5.61655C11.5235 5.59671 11.1955 5.58679 10.7882 5.58679C9.47648 5.58679 8.9696 6.08375 8.9696 7.37559V8.24023H11.5827L11.1338 10.685H8.9696V16.1817C12.9309 15.7033 16.0003 12.3305 16.0003 8.24023C16 3.82199 12.4182 0.240234 8 0.240234Z" fill="#626262"/>
</g>
<defs>
<clipPath id="clip0_1449_9169">
<rect width="16" height="16" fill="white" transform="translate(0 0.240234)"/>
</clipPath>
</defs>
</svg>
