<svg width="16" height="17" viewBox="0 0 16 17" fill="none" xmlns="http://www.w3.org/2000/svg">
<g clip-path="url(#clip0_1449_9177)">
<path d="M8 6.78564V9.88383H12.3054C12.1164 10.8802 11.549 11.7239 10.6981 12.2911L13.2945 14.3057C14.8072 12.9094 15.68 10.8584 15.68 8.42209C15.68 7.85483 15.6291 7.30932 15.5345 6.78573L8 6.78564Z" fill="#626262"/>
<path d="M3.51674 9.7627L2.93116 10.2109L0.858398 11.8255C2.17476 14.4363 4.87274 16.24 7.99999 16.24C10.1599 16.24 11.9708 15.5273 13.2945 14.3055L10.6981 12.2909C9.9854 12.7709 9.07631 13.0619 7.99999 13.0619C5.92 13.0619 4.15278 11.6582 3.52001 9.76731L3.51674 9.7627Z" fill="#626262"/>
<path d="M0.858119 4.65479C0.312695 5.7311 0 6.94567 0 8.24019C0 9.53471 0.312695 10.7493 0.858119 11.8256C0.858119 11.8328 3.51998 9.76014 3.51998 9.76014C3.35998 9.28015 3.26541 8.77109 3.26541 8.24011C3.26541 7.70913 3.35998 7.20007 3.51998 6.72007L0.858119 4.65479Z" fill="#626262"/>
<path d="M8.00015 3.42569C9.17835 3.42569 10.2256 3.83295 11.062 4.61841L13.3529 2.32753C11.9638 1.03301 10.1602 0.240234 8.00015 0.240234C4.8729 0.240234 2.17476 2.03659 0.858398 4.65478L3.52018 6.72024C4.15287 4.82931 5.92016 3.42569 8.00015 3.42569Z" fill="#626262"/>
</g>
<defs>
<clipPath id="clip0_1449_9177">
<rect width="16" height="16" fill="white" transform="translate(0 0.240234)"/>
</clipPath>
</defs>
</svg>
