<svg width="16" height="17" viewBox="0 0 16 17" fill="none" xmlns="http://www.w3.org/2000/svg">
<g clip-path="url(#clip0_1449_9171)">
<path d="M8 1.68086C10.1375 1.68086 10.3906 1.69023 11.2313 1.72773C12.0125 1.76211 12.4344 1.89336 12.7156 2.00273C13.0875 2.14648 13.3563 2.32148 13.6344 2.59961C13.9156 2.88086 14.0875 3.14648 14.2313 3.51836C14.3406 3.79961 14.4719 4.22461 14.5063 5.00273C14.5438 5.84648 14.5531 6.09961 14.5531 8.23398C14.5531 10.3715 14.5438 10.6246 14.5063 11.4652C14.4719 12.2465 14.3406 12.6684 14.2313 12.9496C14.0875 13.3215 13.9125 13.5902 13.6344 13.8684C13.3531 14.1496 13.0875 14.3215 12.7156 14.4652C12.4344 14.5746 12.0094 14.7059 11.2313 14.7402C10.3875 14.7777 10.1344 14.7871 8 14.7871C5.8625 14.7871 5.60938 14.7777 4.76875 14.7402C3.9875 14.7059 3.56563 14.5746 3.28438 14.4652C2.9125 14.3215 2.64375 14.1465 2.36563 13.8684C2.08438 13.5871 1.9125 13.3215 1.76875 12.9496C1.65938 12.6684 1.52813 12.2434 1.49375 11.4652C1.45625 10.6215 1.44688 10.3684 1.44688 8.23398C1.44688 6.09648 1.45625 5.84336 1.49375 5.00273C1.52813 4.22148 1.65938 3.79961 1.76875 3.51836C1.9125 3.14648 2.0875 2.87773 2.36563 2.59961C2.64688 2.31836 2.9125 2.14648 3.28438 2.00273C3.56563 1.89336 3.99063 1.76211 4.76875 1.72773C5.60938 1.69023 5.8625 1.68086 8 1.68086ZM8 0.240234C5.82813 0.240234 5.55625 0.249609 4.70313 0.287109C3.85313 0.324609 3.26875 0.462109 2.7625 0.658984C2.23438 0.865234 1.7875 1.13711 1.34375 1.58398C0.896875 2.02773 0.625 2.47461 0.41875 2.99961C0.221875 3.50898 0.084375 4.09023 0.046875 4.94023C0.009375 5.79648 0 6.06836 0 8.24023C0 10.4121 0.009375 10.684 0.046875 11.5371C0.084375 12.3871 0.221875 12.9715 0.41875 13.4777C0.625 14.0059 0.896875 14.4527 1.34375 14.8965C1.7875 15.3402 2.23438 15.6152 2.75938 15.8184C3.26875 16.0152 3.85 16.1527 4.7 16.1902C5.55313 16.2277 5.825 16.2371 7.99688 16.2371C10.1688 16.2371 10.4406 16.2277 11.2938 16.1902C12.1438 16.1527 12.7281 16.0152 13.2344 15.8184C13.7594 15.6152 14.2063 15.3402 14.65 14.8965C15.0938 14.4527 15.3688 14.0059 15.5719 13.4809C15.7688 12.9715 15.9063 12.3902 15.9438 11.5402C15.9813 10.6871 15.9906 10.4152 15.9906 8.24336C15.9906 6.07149 15.9813 5.79961 15.9438 4.94648C15.9063 4.09648 15.7688 3.51211 15.5719 3.00586C15.375 2.47461 15.1031 2.02773 14.6563 1.58398C14.2125 1.14023 13.7656 0.865234 13.2406 0.662109C12.7313 0.465234 12.15 0.327734 11.3 0.290234C10.4438 0.249609 10.1719 0.240234 8 0.240234Z" fill="#626262"/>
<path d="M8 4.13086C5.73125 4.13086 3.89062 5.97148 3.89062 8.24023C3.89062 10.509 5.73125 12.3496 8 12.3496C10.2688 12.3496 12.1094 10.509 12.1094 8.24023C12.1094 5.97148 10.2688 4.13086 8 4.13086ZM8 10.9059C6.52813 10.9059 5.33437 9.71211 5.33437 8.24023C5.33437 6.76836 6.52813 5.57461 8 5.57461C9.47188 5.57461 10.6656 6.76836 10.6656 8.24023C10.6656 9.71211 9.47188 10.9059 8 10.9059Z" fill="#626262"/>
<path d="M13.2312 3.96817C13.2312 4.49942 12.8 4.92754 12.2719 4.92754C11.7406 4.92754 11.3125 4.49629 11.3125 3.96817C11.3125 3.43691 11.7438 3.00879 12.2719 3.00879C12.8 3.00879 13.2312 3.44004 13.2312 3.96817Z" fill="#626262"/>
</g>
<defs>
<clipPath id="clip0_1449_9171">
<rect width="16" height="16" fill="white" transform="translate(0 0.240234)"/>
</clipPath>
</defs>
</svg>
