<svg width="16" height="17" viewBox="0 0 16 17" fill="none" xmlns="http://www.w3.org/2000/svg">
<path d="M15.8406 5.04043C15.8406 5.04043 15.6844 3.9373 15.2031 3.45293C14.5938 2.81543 13.9125 2.8123 13.6 2.7748C11.3625 2.6123 8.00313 2.6123 8.00313 2.6123H7.99687C7.99687 2.6123 4.6375 2.6123 2.4 2.7748C2.0875 2.8123 1.40625 2.81543 0.796875 3.45293C0.315625 3.9373 0.1625 5.04043 0.1625 5.04043C0.1625 5.04043 0 6.3373 0 7.63105V8.84355C0 10.1373 0.159375 11.4342 0.159375 11.4342C0.159375 11.4342 0.315625 12.5373 0.79375 13.0217C1.40313 13.6592 2.20313 13.6373 2.55938 13.7061C3.84063 13.8279 8 13.8654 8 13.8654C8 13.8654 11.3625 13.8592 13.6 13.6998C13.9125 13.6623 14.5938 13.6592 15.2031 13.0217C15.6844 12.5373 15.8406 11.4342 15.8406 11.4342C15.8406 11.4342 16 10.1404 16 8.84355V7.63105C16 6.3373 15.8406 5.04043 15.8406 5.04043ZM6.34688 10.3154V5.81855L10.6687 8.0748L6.34688 10.3154Z" fill="#626262"/>
</svg>
